<svg width="10" height="7" viewBox="0 0 10 7" fill="none" xmlns="http://www.w3.org/2000/svg">
<path d="M5.55148 6.13698L9.77869 1.90229C9.84882 1.83274 9.90448 1.74999 9.94246 1.65882C9.98044 1.56765 10 1.46985 10 1.37109C10 1.27232 9.98044 1.17453 9.94246 1.08335C9.90448 0.992181 9.84882 0.909432 9.77869 0.839879C9.63851 0.70053 9.44888 0.622314 9.25122 0.622314C9.05357 0.622314 8.86394 0.70053 8.72376 0.839879L4.98287 4.54336L1.27938 0.839879C1.1392 0.70053 0.949576 0.622314 0.751919 0.622314C0.554261 0.622314 0.364634 0.70053 0.224453 0.839879C0.153759 0.909171 0.097518 0.991803 0.0589895 1.08299C0.0204611 1.17417 0.000411005 1.2721 -3.27298e-08 1.37109C0.000410997 1.47007 0.020461 1.568 0.0589895 1.65918C0.0975179 1.75037 0.153759 1.833 0.224453 1.90229L4.45166 6.13698C4.52172 6.21293 4.60675 6.27353 4.7014 6.31499C4.79604 6.35644 4.89825 6.37784 5.00157 6.37784C5.1049 6.37784 5.2071 6.35644 5.30174 6.31499C5.39639 6.27353 5.48142 6.21293 5.55148 6.13698Z" fill="#4F4F4F"/>
</svg>
